<svg xmlns="http://www.w3.org/2000/svg" viewBox="0 0 1200 360" role="img" aria-labelledby="title desc"><title id="title">Termwise Atlas</title><desc id="desc">One open guide to AI coding from any terminal, on any device.</desc><rect width="1200" height="360" rx="24" fill="#0d212a"/><g fill="none" stroke="#23444e"><path d="M0 72h1200M0 144h1200M0 216h1200M0 288h1200M72 0v360M144 0v360M216 0v360M288 0v360M360 0v360M432 0v360M504 0v360M576 0v360M648 0v360M720 0v360M792 0v360M864 0v360M936 0v360M1008 0v360M1080 0v360M1152 0v360" opacity=".28"/><circle cx="1040" cy="180" r="105"/><circle cx="1040" cy="180" r="65"/><path d="M935 180h210m-105-105v210"/></g><path d="M1010 220l16-57 54-26-22 62z" fill="#53dec1"/><text x="65" y="76" fill="#53dec1" font-family="monospace" font-size="17" letter-spacing="4">THE OPEN TERMINAL FIELD GUIDE</text><text x="60" y="164" fill="#eff8f6" font-family="system-ui,sans-serif" font-weight="800" font-size="69">Termwise Atlas</text><text x="65" y="220" fill="#b9cdd1" font-family="system-ui,sans-serif" font-size="24">One open guide to AI coding from any terminal, on any device.</text><rect x="65" y="266" width="355" height="40" rx="20" fill="#163840"/><text x="85" y="292" fill="#f1ce86" font-family="monospace" font-size="16">LOCAL / FREE TIERS / YOUR OWN KEYS</text></svg>
